# xmcd
#
# Track frame offsets:
# 150
# 19047
# 39541
# 57776
# 76963
# 91889
# 112028
# 132745
# 149845
# 170127
# 189557
# 210309
#
# Disc length: 3120 seconds
#
# Revision: 1
# Processed by: cddbd v1.5.1PL0 Copyright (c) Steve Scherf et al.
# Submitted via: CedeCatalogueitor 2.6.0.6 http://personales.ya.com/cdcatalogueitor
#
DISCID=ad0c2e0c
DTITLE=Az Yet - Az Yet
DYEAR=1900
DGENRE=
TTITLE0=East Night
TTITLE1=Saved For Someone Else
TTITLE2=Care For Me
TTITLE3=Every Little Bit Of My Heart
TTITLE4=Hard To Say I´m Sorry
TTITLE5=That´s All I Want
TTITLE6=Secrets
TTITLE7=Through My Heart
TTITLE8=I Don´t Want To Be Lonely
TTITLE9=Sadder Than Blue
TTITLE10=Inseparable Lovers
TTITLE11=Time To End The Story
EXTD=
EXTT0=
EXTT1=
EXTT2=
EXTT3=
EXTT4=
EXTT5=
EXTT6=
EXTT7=
EXTT8=
EXTT9=
EXTT10=
EXTT11=
PLAYORDER=
